REM MD5 a9ccc59a9484255f28fbb8b0eb686d47
FILE "Play-Pre Vol. 13 (Japan) (Disc 1).bin" BINARY
  TRACK 01 MODE2/2352
    INDEX 01 00:00:00
  TRACK 02 AUDIO
    INDEX 00 59:57:74
    INDEX 01 59:59:74
  TRACK 03 AUDIO
    INDEX 00 62:28:67
    INDEX 01 62:30:67
  TRACK 04 AUDIO
    INDEX 00 63:29:32
    INDEX 01 63:31:32
REM LEADOUT 67:32:00
